<?xml version="1.0" encoding="UTF-8"?>
<!DOCTYPE svg PUBLIC "-//W3C//DTD SVG 1.1//EN" "http://www.w3.org/Graphics/SVG/1.1/DTD/svg11.dtd">
<svg xmlns="http://www.w3.org/2000/svg" version="1.1" width="230px" height="230px" style="shape-rendering:geometricPrecision; text-rendering:geometricPrecision; image-rendering:optimizeQuality; fill-rule:evenodd; clip-rule:evenodd" xmlns:xlink="http://www.w3.org/1999/xlink">
<g><path style="opacity:1" fill="#222122" d="M 127.5,9.5 C 116.825,9.62326 106.159,9.9566 95.5,10.5C 101.769,9.02006 108.269,8.3534 115,8.5C 119.347,8.50101 123.514,8.83434 127.5,9.5 Z"/></g>
<g><path style="opacity:1" fill="#313131" d="M 127.5,9.5 C 128.167,9.5 128.833,9.5 129.5,9.5C 137.365,11.9744 145.365,14.4744 153.5,17C 158.934,20.0506 164.6,22.5506 170.5,24.5C 171.948,27.264 174.281,28.9307 177.5,29.5C 178.167,29.5 178.5,29.8333 178.5,30.5C 178.783,31.2891 179.283,31.9558 180,32.5C 182.415,31.8681 184.582,30.8681 186.5,29.5C 196.121,27.5123 205.788,25.679 215.5,24C 216.416,23.7216 217.082,23.2216 217.5,22.5C 217.833,22.5 218.167,22.5 218.5,22.5C 225.209,22.311 227.209,25.311 224.5,31.5C 224.672,32.4916 224.338,33.1583 223.5,33.5C 221.952,33.8212 221.285,34.8212 221.5,36.5C 219.668,40.8362 217.335,44.8362 214.5,48.5C 211.22,52.8849 208.553,57.7182 206.5,63C 207.888,66.9544 209.888,70.4544 212.5,73.5C 213.009,78.703 214.676,83.3697 217.5,87.5C 217.5,87.8333 217.5,88.1667 217.5,88.5C 217.062,88.4346 216.728,88.6012 216.5,89C 221.601,111.266 220.101,133.099 212,154.5C 208.042,162.753 203.876,170.753 199.5,178.5C 199.5,179.167 199.167,179.5 198.5,179.5C 193.156,183.845 188.489,188.845 184.5,194.5C 184.167,195.5 183.5,196.167 182.5,196.5C 181.448,196.351 180.448,196.517 179.5,197C 177.234,198.426 175.568,200.26 174.5,202.5C 171.966,202.259 170.3,203.259 169.5,205.5C 166.966,205.259 165.3,206.259 164.5,208.5C 164.167,208.5 163.833,208.5 163.5,208.5C 154.533,212.16 145.533,215.494 136.5,218.5C 136.167,218.5 135.833,218.5 135.5,218.5C 118.718,220.273 102.051,219.606 85.5,216.5C 83.901,216.768 82.5676,216.434 81.5,215.5C 78.665,213.215 75.3316,211.882 71.5,211.5C 70.5084,211.672 69.8417,211.338 69.5,210.5C 68.089,208.461 66.089,207.461 63.5,207.5C 62.5084,207.672 61.8417,207.338 61.5,206.5C 61.1788,204.952 60.1788,204.285 58.5,204.5C 58.0269,203.094 57.0269,202.427 55.5,202.5C 54.7377,200.738 53.4044,199.738 51.5,199.5C 50.7377,197.738 49.4044,196.738 47.5,196.5C 44.1938,192.527 40.5271,188.86 36.5,185.5C 35.1667,184.833 34.1667,183.833 33.5,182.5C 29.0785,175.32 24.4118,168.32 19.5,161.5C 19.7709,159.62 19.1042,158.287 17.5,157.5C 15.7411,149.564 13.4078,141.898 10.5,134.5C 7.86979,111.323 10.8698,89.3229 19.5,68.5C 20.6417,64.8832 22.3084,61.5498 24.5,58.5C 29.5305,53.7959 33.8638,48.4625 37.5,42.5C 38.5,40.8333 39.8333,39.5 41.5,38.5C 57.2701,24.9477 75.2701,15.6143 95.5,10.5C 106.159,9.9566 116.825,9.62326 127.5,9.5 Z M 135.5,20.5 C 135.833,20.5 136.167,20.5 136.5,20.5C 139.341,21.6693 142.341,22.6693 145.5,23.5C 145.833,23.5 146.167,23.5 146.5,23.5C 149.979,25.4031 153.646,27.0698 157.5,28.5C 159.849,30.341 162.515,31.6743 165.5,32.5C 165.953,33.4584 166.619,34.2917 167.5,35C 166.263,35.2321 165.263,35.7321 164.5,36.5C 161.557,36.9802 158.89,37.9802 156.5,39.5C 153.458,39.7329 150.792,40.7329 148.5,42.5C 137.223,47.137 126.556,52.8036 116.5,59.5C 110.463,62.1819 105.129,65.8486 100.5,70.5C 91.2829,76.3783 82.9496,83.3783 75.5,91.5C 74.8333,91.5 74.5,91.8333 74.5,92.5C 70.1024,95.8947 66.4357,99.8947 63.5,104.5C 62.8333,104.5 62.5,104.833 62.5,105.5C 53.9682,113.697 46.9682,123.03 41.5,133.5C 37.433,138.619 34.0997,144.285 31.5,150.5C 29.5504,149.628 27.5504,148.961 25.5,148.5C 24.3077,146.887 23.3077,145.22 22.5,143.5C 22.2785,140.933 21.6118,138.599 20.5,136.5C 20.5,136.167 20.5,135.833 20.5,135.5C 16.7237,115.68 18.3904,96.347 25.5,77.5C 28.0716,73.3608 30.4049,69.0274 32.5,64.5C 33.8202,62.5368 35.1535,60.5368 36.5,58.5C 38.8532,56.1401 40.8532,53.4735 42.5,50.5C 45.8333,47.8333 48.8333,44.8333 51.5,41.5C 53.2303,40.9744 54.5637,39.9744 55.5,38.5C 56.7095,38.0679 57.7095,37.4013 58.5,36.5C 59.1667,36.5 59.5,36.1667 59.5,35.5C 67.0751,31.2134 74.7418,27.2134 82.5,23.5C 99.9245,18.2121 117.591,17.2121 135.5,20.5 Z M 211.5,33.5 C 209.82,36.8599 208.153,40.1932 206.5,43.5C 203.326,48.5156 200.659,53.8489 198.5,59.5C 196.98,61.8902 195.98,64.5568 195.5,67.5C 189.253,81.3867 185.92,96.0534 185.5,111.5C 184.161,124.395 184.494,137.395 186.5,150.5C 179.557,149.862 173.89,146.862 169.5,141.5C 169.34,139.847 168.674,138.514 167.5,137.5C 167.5,136.833 167.167,136.5 166.5,136.5C 164.167,133.833 161.833,133.833 159.5,136.5C 158.662,136.842 158.328,137.508 158.5,138.5C 156.478,140.531 154.811,142.865 153.5,145.5C 152.508,145.328 151.842,145.662 151.5,146.5C 143.062,151.429 134.395,151.763 125.5,147.5C 121.811,144.971 118.978,141.638 117,137.5C 114.504,133.998 111.671,133.665 108.5,136.5C 106.157,139.862 103.824,143.196 101.5,146.5C 97.05,148.982 92.3833,150.648 87.5,151.5C 87.1667,151.5 86.8333,151.5 86.5,151.5C 80.0037,150.754 74.3371,148.087 69.5,143.5C 69.6716,142.508 69.3382,141.842 68.5,141.5C 68.0679,140.29 67.4013,139.29 66.5,138.5C 65.327,135.246 62.9937,134.08 59.5,135C 55.9743,141.024 51.3076,145.858 45.5,149.5C 44.7611,149.631 44.0944,149.464 43.5,149C 44.8228,148.184 45.4894,147.017 45.5,145.5C 47.4168,142.669 49.0834,139.669 50.5,136.5C 51.9744,135.564 52.9744,134.23 53.5,132.5C 57.4884,127.205 61.4884,121.872 65.5,116.5C 67.8777,114.122 69.8777,111.455 71.5,108.5C 73.5,107.167 75.1667,105.5 76.5,103.5C 78.5,102.167 80.1667,100.5 81.5,98.5C 84.1667,96.5 86.5,94.1667 88.5,91.5C 91.0892,90.5806 93.0892,88.914 94.5,86.5C 96.0269,86.573 97.0269,85.9063 97.5,84.5C 98.5,84.1667 99.1667,83.5 99.5,82.5C 102.533,80.984 105.2,78.984 107.5,76.5C 109.777,75.5514 111.777,74.2181 113.5,72.5C 114.167,72.5 114.5,72.1667 114.5,71.5C 116.153,71.3404 117.486,70.6737 118.5,69.5C 121.709,67.7349 124.709,65.7349 127.5,63.5C 138.902,58.13 150.236,52.7967 161.5,47.5C 166.382,46.2079 171.048,44.5412 175.5,42.5C 179.048,41.8699 182.381,40.8699 185.5,39.5C 187.786,39.405 189.786,38.7384 191.5,37.5C 193.565,37.4828 195.565,37.1495 197.5,36.5C 200.067,36.2785 202.401,35.6118 204.5,34.5C 206.903,34.552 209.236,34.2186 211.5,33.5 Z M 206.5,83.5 C 209.992,97.2686 211.325,111.269 210.5,125.5C 210.5,125.833 210.5,126.167 210.5,126.5C 209.245,131.106 208.245,135.773 207.5,140.5C 205.529,142.808 203.529,145.142 201.5,147.5C 199.83,147.751 198.33,148.418 197,149.5C 195.066,137.925 194.233,126.258 194.5,114.5C 195.873,104.912 197.54,95.2452 199.5,85.5C 199.5,85.1667 199.5,84.8333 199.5,84.5C 200.74,81.976 201.907,79.3093 203,76.5C 203.67,79.1739 204.837,81.5073 206.5,83.5 Z M 60.5,149.5 C 63.0934,150.754 65.4268,152.42 67.5,154.5C 67.8333,154.5 68.1667,154.5 68.5,154.5C 70.9922,157.675 74.3256,159.341 78.5,159.5C 86.1598,161.909 93.8265,161.409 101.5,158C 102.571,157.148 103.571,156.315 104.5,155.5C 107.245,154.263 109.578,152.43 111.5,150C 112.577,149.53 113.577,149.697 114.5,150.5C 114.833,151.5 115.5,152.167 116.5,152.5C 117.262,154.262 118.596,155.262 120.5,155.5C 121.659,157.25 123.326,158.25 125.5,158.5C 126.708,159.234 128.041,159.567 129.5,159.5C 137.16,161.909 144.826,161.409 152.5,158C 153.571,157.148 154.571,156.315 155.5,155.5C 156.71,155.068 157.71,154.401 158.5,153.5C 159.5,153.167 160.167,152.5 160.5,151.5C 161.458,151.047 162.292,150.381 163,149.5C 164.451,151.464 166.284,152.797 168.5,153.5C 168.973,154.906 169.973,155.573 171.5,155.5C 173.649,157.746 176.316,159.246 179.5,160C 183.576,160.998 187.576,161.165 191.5,160.5C 191.833,160.5 192.167,160.5 192.5,160.5C 194.861,160.326 197.194,159.993 199.5,159.5C 198.89,160.391 198.557,161.391 198.5,162.5C 197.662,162.842 197.328,163.508 197.5,164.5C 193.454,169.214 189.788,174.214 186.5,179.5C 183.167,182.167 180.167,185.167 177.5,188.5C 169.623,194.271 161.29,199.271 152.5,203.5C 144.014,206.455 135.348,208.788 126.5,210.5C 113.341,211.162 100.341,210.162 87.5,207.5C 81.8288,205.382 76.1622,203.048 70.5,200.5C 69.8333,200.167 69.1667,199.833 68.5,199.5C 63.5229,196.2 58.5229,192.867 53.5,189.5C 52.7377,187.738 51.4044,186.738 49.5,186.5C 48.1667,184.5 46.5,182.833 44.5,181.5C 42.2065,177.873 39.5398,174.539 36.5,171.5C 36.573,169.973 35.9063,168.973 34.5,168.5C 34.573,166.973 33.9063,165.973 32.5,165.5C 32.6716,164.508 32.3382,163.842 31.5,163.5C 31.5858,162.504 31.2524,161.671 30.5,161C 37.555,161.732 44.2216,160.565 50.5,157.5C 54.704,155.967 58.0374,153.3 60.5,149.5 Z"/></g>
<g><path style="opacity:1" fill="#252526" d="M 129.5,9.5 C 144.388,11.4565 158.055,16.4565 170.5,24.5C 164.6,22.5506 158.934,20.0506 153.5,17C 145.365,14.4744 137.365,11.9744 129.5,9.5 Z"/></g>
<g><path style="opacity:1" fill="#212223" d="M 135.5,20.5 C 117.591,17.2121 99.9245,18.2121 82.5,23.5C 83.842,22.207 85.5087,21.3736 87.5,21C 100.641,17.699 113.974,16.699 127.5,18C 130.522,18.0984 133.189,18.9318 135.5,20.5 Z"/></g>
<g><path style="opacity:1" fill="#252728" d="M 136.5,20.5 C 140.081,20.1376 143.081,21.1376 145.5,23.5C 142.341,22.6693 139.341,21.6693 136.5,20.5 Z"/></g>
<g><path style="opacity:1" fill="#222223" d="M 217.5,22.5 C 217.082,23.2216 216.416,23.7216 215.5,24C 205.788,25.679 196.121,27.5123 186.5,29.5C 196.459,26.0385 206.793,23.7052 217.5,22.5 Z"/></g>
<g><path style="opacity:1" fill="#202022" d="M 218.5,22.5 C 224.842,20.3346 227.342,22.668 226,29.5C 225.722,30.4158 225.222,31.0825 224.5,31.5C 227.209,25.311 225.209,22.311 218.5,22.5 Z"/></g>
<g><path style="opacity:1" fill="#242527" d="M 157.5,28.5 C 153.646,27.0698 149.979,25.4031 146.5,23.5C 146.435,23.0618 146.601,22.7284 147,22.5C 151.011,23.9125 154.511,25.9125 157.5,28.5 Z"/></g>
<g><path style="opacity:1" fill="#252626" d="M 82.5,23.5 C 74.7418,27.2134 67.0751,31.2134 59.5,35.5C 60.6417,33.5669 62.3083,32.0669 64.5,31C 70.2039,27.6437 76.2039,25.1437 82.5,23.5 Z"/></g>
<g><path style="opacity:1" fill="#242425" d="M 170.5,24.5 C 173.135,25.8109 175.469,27.4776 177.5,29.5C 174.281,28.9307 171.948,27.264 170.5,24.5 Z"/></g>
<g><path style="opacity:1" fill="#222222" d="M 186.5,29.5 C 184.582,30.8681 182.415,31.8681 180,32.5C 179.283,31.9558 178.783,31.2891 178.5,30.5C 181.167,30.1667 183.833,29.8333 186.5,29.5 Z"/></g>
<g><path style="opacity:1" fill="#282728" d="M 95.5,10.5 C 75.2701,15.6143 57.2701,24.9477 41.5,38.5C 56.3723,23.3953 74.3723,14.0619 95.5,10.5 Z"/></g>
<g><path style="opacity:1" fill="#212123" d="M 211.5,33.5 C 209.236,34.2186 206.903,34.552 204.5,34.5C 206.137,33.6204 207.97,32.9537 210,32.5C 210.765,32.5699 211.265,32.9033 211.5,33.5 Z"/></g>
<g><path style="opacity:1" fill="#232323" d="M 223.5,33.5 C 223.068,34.7095 222.401,35.7095 221.5,36.5C 221.285,34.8212 221.952,33.8212 223.5,33.5 Z"/></g>
<g><path style="opacity:1" fill="#212123" d="M 165.5,32.5 C 167.912,32.6941 168.912,34.0274 168.5,36.5C 167.167,36.5 165.833,36.5 164.5,36.5C 165.263,35.7321 166.263,35.2321 167.5,35C 166.619,34.2917 165.953,33.4584 165.5,32.5 Z"/></g>
<g><path style="opacity:1" fill="#232326" d="M 204.5,34.5 C 202.401,35.6118 200.067,36.2785 197.5,36.5C 199.438,34.8372 201.772,34.1706 204.5,34.5 Z"/></g>
<g><path style="opacity:1" fill="#232324" d="M 58.5,36.5 C 57.7095,37.4013 56.7095,38.0679 55.5,38.5C 55.8212,36.9519 56.8212,36.2852 58.5,36.5 Z"/></g>
<g><path style="opacity:1" fill="#232325" d="M 191.5,37.5 C 189.786,38.7384 187.786,39.405 185.5,39.5C 187.102,37.9261 189.102,37.2594 191.5,37.5 Z"/></g>
<g><path style="opacity:1" fill="#242424" d="M 164.5,36.5 C 162.383,38.6545 159.716,39.6545 156.5,39.5C 158.89,37.9802 161.557,36.9802 164.5,36.5 Z"/></g>
<g><path style="opacity:1" fill="#232323" d="M 55.5,38.5 C 54.5637,39.9744 53.2303,40.9744 51.5,41.5C 52.0347,39.5544 53.368,38.5544 55.5,38.5 Z"/></g>
<g><path style="opacity:1" fill="#262527" d="M 156.5,39.5 C 154.316,41.5848 151.649,42.5848 148.5,42.5C 150.792,40.7329 153.458,39.7329 156.5,39.5 Z"/></g>
<g><path style="opacity:1" fill="#1c1d1c" d="M 51.5,41.5 C 48.8333,44.8333 45.8333,47.8333 42.5,50.5C 44.5,46.5 47.5,43.5 51.5,41.5 Z"/></g>
<g><path style="opacity:1" fill="#272727" d="M 148.5,42.5 C 138.147,48.6775 127.48,54.3442 116.5,59.5C 126.556,52.8036 137.223,47.137 148.5,42.5 Z"/></g>
<g><path style="opacity:1" fill="#232324" d="M 175.5,42.5 C 171.048,44.5412 166.382,46.2079 161.5,47.5C 165.664,44.6657 170.331,42.999 175.5,42.5 Z"/></g>
<g><path style="opacity:1" fill="#282827" d="M 37.5,42.5 C 33.8638,48.4625 29.5305,53.7959 24.5,58.5C 28.106,52.5622 32.4393,47.2288 37.5,42.5 Z"/></g>
<g><path style="opacity:1" fill="#2c2a2b" d="M 206.5,43.5 C 204.874,49.4193 202.207,54.7526 198.5,59.5C 200.659,53.8489 203.326,48.5156 206.5,43.5 Z"/></g>
<g><path style="opacity:1" fill="#252526" d="M 161.5,47.5 C 150.236,52.7967 138.902,58.13 127.5,63.5C 138.036,56.5666 149.369,51.2332 161.5,47.5 Z"/></g>
<g><path style="opacity:1" fill="#282728" d="M 214.5,48.5 C 212.579,53.51 210.245,58.3433 207.5,63C 209.579,66.3244 211.246,69.8244 212.5,73.5C 209.888,70.4544 207.888,66.9544 206.5,63C 208.553,57.7182 211.22,52.8849 214.5,48.5 Z"/></g>
<g><path style="opacity:1" fill="#282828" d="M 36.5,58.5 C 35.1535,60.5368 33.8202,62.5368 32.5,64.5C 32.3746,61.3918 33.7079,59.3918 36.5,58.5 Z"/></g>
<g><path style="opacity:1" fill="#262425" d="M 116.5,59.5 C 111.523,63.6577 106.189,67.3243 100.5,70.5C 105.129,65.8486 110.463,62.1819 116.5,59.5 Z"/></g>
<g><path style="opacity:1" fill="#282728" d="M 195.5,67.5 C 192.634,77.0218 190.134,87.0218 188,97.5C 187.055,105.637 186.222,113.637 185.5,121.5C 185.5,118.167 185.5,114.833 185.5,111.5C 185.92,96.0534 189.253,81.3867 195.5,67.5 Z"/></g>
<g><path style="opacity:1" fill="#202022" d="M 118.5,69.5 C 117.486,70.6737 116.153,71.3404 114.5,71.5C 115.287,69.8958 116.62,69.2291 118.5,69.5 Z"/></g>
<g><path style="opacity:1" fill="#212122" d="M 113.5,72.5 C 111.777,74.2181 109.777,75.5514 107.5,76.5C 108.708,73.9558 110.708,72.6225 113.5,72.5 Z"/></g>
<g><path style="opacity:1" fill="#252626" d="M 212.5,73.5 C 214.538,77.9399 216.204,82.6066 217.5,87.5C 214.676,83.3697 213.009,78.703 212.5,73.5 Z"/></g>
<g><path style="opacity:1" fill="#242424" d="M 206.5,83.5 C 204.837,81.5073 203.67,79.1739 203,76.5C 201.907,79.3093 200.74,81.976 199.5,84.5C 200.167,80.8333 200.833,77.1667 201.5,73.5C 202.552,73.3505 203.552,73.5172 204.5,74C 204.167,74.3333 203.833,74.6667 203.5,75C 204.929,77.6897 205.929,80.5231 206.5,83.5 Z"/></g>
<g><path style="opacity:1" fill="#262727" d="M 19.5,68.5 C 10.8698,89.3229 7.86979,111.323 10.5,134.5C 7.57025,118.543 8.07025,102.543 12,86.5C 13.6474,80.0342 16.1474,74.0342 19.5,68.5 Z"/></g>
<g><path style="opacity:1" fill="#202022" d="M 107.5,76.5 C 105.2,78.984 102.533,80.984 99.5,82.5C 101.443,79.5293 104.109,77.5293 107.5,76.5 Z"/></g>
<g><path style="opacity:1" fill="#272727" d="M 25.5,77.5 C 18.3904,96.347 16.7237,115.68 20.5,135.5C 18.9318,133.189 18.0984,130.522 18,127.5C 16.4459,112.873 17.7792,98.5392 22,84.5C 22.5218,81.7187 23.6885,79.3854 25.5,77.5 Z"/></g>
<g><path style="opacity:1" fill="#1f1e20" d="M 99.5,82.5 C 99.1667,83.5 98.5,84.1667 97.5,84.5C 97.5,83.1667 98.1667,82.5 99.5,82.5 Z"/></g>
<g><path style="opacity:1" fill="#262626" d="M 100.5,70.5 C 92.465,77.8694 84.1317,84.8694 75.5,91.5C 82.9496,83.3783 91.2829,76.3783 100.5,70.5 Z"/></g>
<g><path style="opacity:1" fill="#1b1b1b" d="M 94.5,86.5 C 93.0892,88.914 91.0892,90.5806 88.5,91.5C 89.9108,89.086 91.9108,87.4194 94.5,86.5 Z"/></g>
<g><path style="opacity:1" fill="#232122" d="M 74.5,92.5 C 71.5643,97.1053 67.8976,101.105 63.5,104.5C 66.4357,99.8947 70.1024,95.8947 74.5,92.5 Z"/></g>
<g><path style="opacity:1" fill="#242426" d="M 81.5,98.5 C 80.1667,100.5 78.5,102.167 76.5,103.5C 77.1667,100.833 78.8333,99.1667 81.5,98.5 Z"/></g>
<g><path style="opacity:1" fill="#252525" d="M 199.5,85.5 C 197.54,95.2452 195.873,104.912 194.5,114.5C 194.5,112.833 194.5,111.167 194.5,109.5C 194.724,102.763 195.558,96.0962 197,89.5C 197.2,87.6803 198.034,86.347 199.5,85.5 Z"/></g>
<g><path style="opacity:1" fill="#272727" d="M 62.5,105.5 C 55.493,114.839 48.493,124.172 41.5,133.5C 46.9682,123.03 53.9682,113.697 62.5,105.5 Z"/></g>
<g><path style="opacity:1" fill="#282829" d="M 206.5,83.5 C 212.258,97.125 213.591,111.125 210.5,125.5C 211.325,111.269 209.992,97.2686 206.5,83.5 Z"/></g>
<g><path style="opacity:1" fill="#232323" d="M 71.5,108.5 C 69.8777,111.455 67.8777,114.122 65.5,116.5C 66.3528,112.98 68.3528,110.313 71.5,108.5 Z"/></g>
<g><path style="opacity:1" fill="#252626" d="M 65.5,116.5 C 61.4884,121.872 57.4884,127.205 53.5,132.5C 53.6079,130.217 54.4412,128.217 56,126.5C 58,123.833 60,121.167 62,118.5C 62.8159,117.177 63.9826,116.511 65.5,116.5 Z"/></g>
<g><path style="opacity:1" fill="#262627" d="M 217.5,88.5 C 225.479,121.273 219.479,151.273 199.5,178.5C 203.876,170.753 208.042,162.753 212,154.5C 220.101,133.099 221.601,111.266 216.5,89C 216.728,88.6012 217.062,88.4346 217.5,88.5 Z"/></g>
<g><path style="opacity:1" fill="#292829" d="M 210.5,126.5 C 211.097,126.735 211.43,127.235 211.5,128C 210.84,132.505 209.506,136.672 207.5,140.5C 208.245,135.773 209.245,131.106 210.5,126.5 Z"/></g>
<g><path style="opacity:1" fill="#222223" d="M 10.5,134.5 C 13.4078,141.898 15.7411,149.564 17.5,157.5C 13.7917,150.354 11.4584,142.687 10.5,134.5 Z"/></g>
<g><path style="opacity:1" fill="#282828" d="M 166.5,136.5 C 164.167,135.167 161.833,135.167 159.5,136.5C 161.833,133.833 164.167,133.833 166.5,136.5 Z"/></g>
<g><path style="opacity:1" fill="#262626" d="M 125.5,147.5 C 120.944,146.115 117.778,143.115 116,138.5C 114.116,136.424 111.949,136.09 109.5,137.5C 107.694,140.472 105.694,143.305 103.5,146C 102.906,146.464 102.239,146.631 101.5,146.5C 103.824,143.196 106.157,139.862 108.5,136.5C 111.671,133.665 114.504,133.998 117,137.5C 118.978,141.638 121.811,144.971 125.5,147.5 Z"/></g>
<g><path style="opacity:1" fill="#202222" d="M 66.5,138.5 C 67.4013,139.29 68.0679,140.29 68.5,141.5C 66.9519,141.179 66.2852,140.179 66.5,138.5 Z"/></g>
<g><path style="opacity:1" fill="#272728" d="M 158.5,138.5 C 157.972,141.688 156.305,144.021 153.5,145.5C 154.811,142.865 156.478,140.531 158.5,138.5 Z"/></g>
<g><path style="opacity:1" fill="#212122" d="M 167.5,137.5 C 168.674,138.514 169.34,139.847 169.5,141.5C 167.896,140.713 167.229,139.38 167.5,137.5 Z"/></g>
<g><path style="opacity:1" fill="#232325" d="M 20.5,136.5 C 21.6118,138.599 22.2785,140.933 22.5,143.5C 20.8372,141.562 20.1706,139.228 20.5,136.5 Z"/></g>
<g><path style="opacity:1" fill="#272727" d="M 194.5,109.5 C 194.5,111.167 194.5,112.833 194.5,114.5C 194.233,126.258 195.066,137.925 197,149.5C 198.33,148.418 199.83,147.751 201.5,147.5C 200,149.179 198.167,150.512 196,151.5C 195.13,150.892 194.63,150.059 194.5,149C 193.476,135.846 193.476,122.679 194.5,109.5 Z"/></g>
<g><path style="opacity:1" fill="#252627" d="M 50.5,136.5 C 49.0834,139.669 47.4168,142.669 45.5,145.5C 45.8838,141.728 47.5505,138.728 50.5,136.5 Z"/></g>
<g><path style="opacity:1" fill="#262526" d="M 66.5,138.5 C 64.7866,136.805 62.7866,135.972 60.5,136C 57.5,139.667 54.5,143.333 51.5,147C 49.7834,148.559 47.7834,149.392 45.5,149.5C 51.3076,145.858 55.9743,141.024 59.5,135C 62.9937,134.08 65.327,135.246 66.5,138.5 Z"/></g>
<g><path style="opacity:1" fill="#262626" d="M 45.5,145.5 C 45.4894,147.017 44.8228,148.184 43.5,149C 44.0944,149.464 44.7611,149.631 45.5,149.5C 44.2064,152.14 42.873,152.14 41.5,149.5C 42.4095,147.625 43.7428,146.292 45.5,145.5 Z"/></g>
<g><path style="opacity:1" fill="#202022" d="M 67.5,154.5 C 65.4268,152.42 63.0934,150.754 60.5,149.5C 60.7828,148.711 61.2828,148.044 62,147.5C 64.4536,149.441 66.287,151.775 67.5,154.5 Z"/></g>
<g><path style="opacity:1" fill="#232324" d="M 185.5,111.5 C 185.5,114.833 185.5,118.167 185.5,121.5C 185.745,131.531 186.412,141.531 187.5,151.5C 179.379,151.777 173.379,148.444 169.5,141.5C 173.89,146.862 179.557,149.862 186.5,150.5C 184.494,137.395 184.161,124.395 185.5,111.5 Z"/></g>
<g><path style="opacity:1" fill="#232324" d="M 69.5,143.5 C 74.3371,148.087 80.0037,150.754 86.5,151.5C 79.0202,152.249 73.3535,149.582 69.5,143.5 Z"/></g>
<g><path style="opacity:1" fill="#212022" d="M 168.5,153.5 C 166.284,152.797 164.451,151.464 163,149.5C 162.292,150.381 161.458,151.047 160.5,151.5C 160.418,149.748 161.251,148.748 163,148.5C 165.316,149.65 167.15,151.317 168.5,153.5 Z"/></g>
<g><path style="opacity:1" fill="#262525" d="M 41.5,133.5 C 38.3443,139.811 35.1777,146.145 32,152.5C 29.5619,151.432 27.3952,150.098 25.5,148.5C 27.5504,148.961 29.5504,149.628 31.5,150.5C 34.0997,144.285 37.433,138.619 41.5,133.5 Z"/></g>
<g><path style="opacity:1" fill="#242324" d="M 101.5,146.5 C 97.8013,150.513 93.1346,152.18 87.5,151.5C 92.3833,150.648 97.05,148.982 101.5,146.5 Z"/></g>
<g><path style="opacity:1" fill="#252527" d="M 151.5,146.5 C 151.063,148.074 150.063,149.241 148.5,150C 142.441,152.201 136.108,152.534 129.5,151C 127.456,150.502 126.122,149.335 125.5,147.5C 134.395,151.763 143.062,151.429 151.5,146.5 Z"/></g>
<g><path style="opacity:1" fill="#212122" d="M 114.5,150.5 C 113.577,149.697 112.577,149.53 111.5,150C 109.578,152.43 107.245,154.263 104.5,155.5C 106.51,152.494 109.177,150.161 112.5,148.5C 113.713,148.747 114.38,149.414 114.5,150.5 Z"/></g>
<g><path style="opacity:1" fill="#222426" d="M 116.5,152.5 C 118.404,152.738 119.738,153.738 120.5,155.5C 118.596,155.262 117.262,154.262 116.5,152.5 Z"/></g>
<g><path style="opacity:1" fill="#1f1d20" d="M 158.5,153.5 C 157.71,154.401 156.71,155.068 155.5,155.5C 155.821,153.952 156.821,153.285 158.5,153.5 Z"/></g>
<g><path style="opacity:1" fill="#202123" d="M 68.5,154.5 C 71.8772,156.175 75.2105,157.842 78.5,159.5C 74.3256,159.341 70.9922,157.675 68.5,154.5 Z"/></g>
<g><path style="opacity:1" fill="#222224" d="M 168.5,153.5 C 170.027,153.427 171.027,154.094 171.5,155.5C 169.973,155.573 168.973,154.906 168.5,153.5 Z"/></g>
<g><path style="opacity:1" fill="#232325" d="M 120.5,155.5 C 122.674,155.75 124.341,156.75 125.5,158.5C 123.326,158.25 121.659,157.25 120.5,155.5 Z"/></g>
<g><path style="opacity:1" fill="#222224" d="M 155.5,155.5 C 154.571,156.315 153.571,157.148 152.5,158C 144.826,161.409 137.16,161.909 129.5,159.5C 134.844,159.666 140.177,159.499 145.5,159C 148.758,157.533 152.092,156.367 155.5,155.5 Z"/></g>
<g><path style="opacity:1" fill="#282728" d="M 198.5,162.5 C 198.557,161.391 198.89,160.391 199.5,159.5C 197.194,159.993 194.861,160.326 192.5,160.5C 195.504,158.558 198.838,157.725 202.5,158C 201.672,159.992 200.339,161.492 198.5,162.5 Z"/></g>
<g><path style="opacity:1" fill="#1d1d20" d="M 17.5,157.5 C 19.1042,158.287 19.7709,159.62 19.5,161.5C 18.3263,160.486 17.6596,159.153 17.5,157.5 Z"/></g>
<g><path style="opacity:1" fill="#262627" d="M 50.5,157.5 C 44.2216,160.565 37.555,161.732 30.5,161C 31.2524,161.671 31.5858,162.504 31.5,163.5C 29.4947,162.746 28.828,161.579 29.5,160C 36.6383,159.893 43.6383,159.06 50.5,157.5 Z"/></g>
<g><path style="opacity:1" fill="#242525" d="M 104.5,155.5 C 103.571,156.315 102.571,157.148 101.5,158C 93.8265,161.409 86.1598,161.909 78.5,159.5C 87.6126,160.398 96.2792,159.064 104.5,155.5 Z"/></g>
<g><path style="opacity:1" fill="#252526" d="M 171.5,155.5 C 177.922,158.583 184.589,160.25 191.5,160.5C 187.576,161.165 183.576,160.998 179.5,160C 176.316,159.246 173.649,157.746 171.5,155.5 Z"/></g>
<g><path style="opacity:1" fill="#262627" d="M 197.5,164.5 C 194.985,170.348 191.318,175.348 186.5,179.5C 189.788,174.214 193.454,169.214 197.5,164.5 Z"/></g>
<g><path style="opacity:1" fill="#232324" d="M 32.5,165.5 C 33.9063,165.973 34.573,166.973 34.5,168.5C 33.0937,168.027 32.427,167.027 32.5,165.5 Z"/></g>
<g><path style="opacity:1" fill="#202021" d="M 34.5,168.5 C 35.9063,168.973 36.573,169.973 36.5,171.5C 35.0937,171.027 34.427,170.027 34.5,168.5 Z"/></g>
<g><path style="opacity:1" fill="#232424" d="M 36.5,171.5 C 39.5398,174.539 42.2065,177.873 44.5,181.5C 40.6998,179.037 38.0332,175.704 36.5,171.5 Z"/></g>
<g><path style="opacity:1" fill="#212222" d="M 19.5,161.5 C 24.4118,168.32 29.0785,175.32 33.5,182.5C 27.272,176.594 22.6054,169.594 19.5,161.5 Z"/></g>
<g><path style="opacity:1" fill="#222222" d="M 198.5,179.5 C 194.539,185.129 189.873,190.129 184.5,194.5C 188.489,188.845 193.156,183.845 198.5,179.5 Z"/></g>
<g><path style="opacity:1" fill="#1f1f21" d="M 49.5,186.5 C 51.4044,186.738 52.7377,187.738 53.5,189.5C 51.5956,189.262 50.2623,188.262 49.5,186.5 Z"/></g>
<g><path style="opacity:1" fill="#1c1a1d" d="M 36.5,185.5 C 40.5271,188.86 44.1938,192.527 47.5,196.5C 42.8333,193.833 39.1667,190.167 36.5,185.5 Z"/></g>
<g><path style="opacity:1" fill="#282828" d="M 177.5,188.5 C 170.573,195.799 162.24,200.799 152.5,203.5C 161.29,199.271 169.623,194.271 177.5,188.5 Z"/></g>
<g><path style="opacity:1" fill="#252426" d="M 53.5,189.5 C 58.5229,192.867 63.5229,196.2 68.5,199.5C 62.3931,197.709 57.3931,194.376 53.5,189.5 Z"/></g>
<g><path style="opacity:1" fill="#232325" d="M 47.5,196.5 C 49.4044,196.738 50.7377,197.738 51.5,199.5C 49.5956,199.262 48.2623,198.262 47.5,196.5 Z"/></g>
<g><path style="opacity:1" fill="#222122" d="M 51.5,199.5 C 53.4044,199.738 54.7377,200.738 55.5,202.5C 53.5956,202.262 52.2623,201.262 51.5,199.5 Z"/></g>
<g><path style="opacity:1" fill="#252525" d="M 182.5,196.5 C 180.14,198.853 177.473,200.853 174.5,202.5C 175.568,200.26 177.234,198.426 179.5,197C 180.448,196.517 181.448,196.351 182.5,196.5 Z"/></g>
<g><path style="opacity:1" fill="#242425" d="M 174.5,202.5 C 173.035,203.737 171.368,204.737 169.5,205.5C 170.3,203.259 171.966,202.259 174.5,202.5 Z"/></g>
<g><path style="opacity:1" fill="#202024" d="M 55.5,202.5 C 57.0269,202.427 58.0269,203.094 58.5,204.5C 56.9731,204.573 55.9731,203.906 55.5,202.5 Z"/></g>
<g><path style="opacity:1" fill="#222223" d="M 58.5,204.5 C 60.1788,204.285 61.1788,204.952 61.5,206.5C 60.2905,206.068 59.2905,205.401 58.5,204.5 Z"/></g>
<g><path style="opacity:1" fill="#262526" d="M 70.5,200.5 C 76.1622,203.048 81.8288,205.382 87.5,207.5C 80.9677,206.888 75.301,204.555 70.5,200.5 Z"/></g>
<g><path style="opacity:1" fill="#232223" d="M 169.5,205.5 C 168.035,206.737 166.368,207.737 164.5,208.5C 165.3,206.259 166.966,205.259 169.5,205.5 Z"/></g>
<g><path style="opacity:1" fill="#222223" d="M 87.5,207.5 C 100.341,210.162 113.341,211.162 126.5,210.5C 126.5,210.833 126.5,211.167 126.5,211.5C 119.216,212.597 111.882,212.763 104.5,212C 98.4335,211.568 92.7668,210.068 87.5,207.5 Z"/></g>
<g><path style="opacity:1" fill="#222224" d="M 63.5,207.5 C 66.089,207.461 68.089,208.461 69.5,210.5C 67.1815,210.008 65.1815,209.008 63.5,207.5 Z"/></g>
<g><path style="opacity:1" fill="#242424" d="M 152.5,203.5 C 150.035,205.837 147.035,207.337 143.5,208C 137.984,209.963 132.317,211.13 126.5,211.5C 126.5,211.167 126.5,210.833 126.5,210.5C 135.348,208.788 144.014,206.455 152.5,203.5 Z"/></g>
<g><path style="opacity:1" fill="#222122" d="M 163.5,208.5 C 155.295,213.76 146.295,217.093 136.5,218.5C 145.533,215.494 154.533,212.16 163.5,208.5 Z"/></g>
<g><path style="opacity:1" fill="#212022" d="M 71.5,211.5 C 75.3316,211.882 78.665,213.215 81.5,215.5C 77.8512,214.733 74.5178,213.4 71.5,211.5 Z"/></g>
<g><path style="opacity:1" fill="#222223" d="M 85.5,216.5 C 102.051,219.606 118.718,220.273 135.5,218.5C 118.67,222.619 102.003,221.952 85.5,216.5 Z"/></g>
</svg>
