<?xml version="1.0" encoding="UTF-8"?>
<!DOCTYPE svg PUBLIC "-//W3C//DTD SVG 1.1//EN" "http://www.w3.org/Graphics/SVG/1.1/DTD/svg11.dtd">
<svg xmlns="http://www.w3.org/2000/svg" version="1.1" width="230px" height="230px" style="shape-rendering:geometricPrecision; text-rendering:geometricPrecision; image-rendering:optimizeQuality; fill-rule:evenodd; clip-rule:evenodd" xmlns:xlink="http://www.w3.org/1999/xlink">
<g><path style="opacity:1" fill="#f9f9f9" d="M 102.5,8.5 C 131.315,6.33324 157.315,13.6666 180.5,30.5C 194.911,26.0608 209.578,23.2275 224.5,22C 227.072,25.8188 226.905,29.6522 224,33.5C 217.866,42.9294 212.366,52.7628 207.5,63C 228.29,104.972 224.79,144.805 197,182.5C 162.514,219.466 121.347,229.633 73.5,213C 27.6789,190.543 6.17889,153.71 9,102.5C 15.2903,61.8788 37.1236,33.0455 74.5,16C 83.7155,12.5318 93.0488,10.0318 102.5,8.5 Z M 104.5,18.5 C 127.519,16.6702 148.519,22.1702 167.5,35C 106.964,55.7102 61.6308,94.2102 31.5,150.5C 25.7622,149.596 22.5956,146.263 22,140.5C 12.3067,96.8979 25.1401,61.7312 60.5,35C 74.0562,26.2079 88.7229,20.7079 104.5,18.5 Z M 209.5,33.5 C 210.239,33.369 210.906,33.5357 211.5,34C 188.698,69.7086 180.365,108.542 186.5,150.5C 177.729,149.898 171.562,145.565 168,137.5C 165.271,134.136 162.271,133.803 159,136.5C 151.691,150.27 140.857,154.103 126.5,148C 121.784,144.951 118.118,140.951 115.5,136C 114.391,135.362 113.225,134.862 112,134.5C 107.94,137.758 104.44,141.592 101.5,146C 91.8333,153.333 82.1667,153.333 72.5,146C 69.5564,143.278 67.2231,140.111 65.5,136.5C 63.3439,134.062 61.0106,133.895 58.5,136C 56.0736,139.516 53.407,142.849 50.5,146C 48.431,147.874 46.0977,148.874 43.5,149C 73.6543,97.1992 117.321,61.8658 174.5,43C 186.162,39.337 197.829,36.1704 209.5,33.5 Z M 202.5,76.5 C 211.824,97.5553 213.324,119.222 207,141.5C 197.054,152.938 193.054,150.604 195,134.5C 193.751,114.653 196.251,95.3195 202.5,76.5 Z M 199.5,159.5 C 181.019,192.175 152.852,209.508 115,211.5C 77.5158,209.856 49.3491,193.023 30.5,161C 42.6824,162.216 53.0158,158.383 61.5,149.5C 78.5,165.5 95.5,165.5 112.5,149.5C 129.357,165.407 146.19,165.407 163,149.5C 173.146,160.211 185.312,163.545 199.5,159.5 Z"/></g>
</svg>
